{"title":"Ek.Villain.2014.DVDRip.x264.Hindi.Esubs-ViZNU [P2PDL]","uid":10938409,"size":571464439,"categoryP":"video","categoryS":"movies","magnet":"?xt=urn:btih:090476f679ed9f14f654093a67c969b7a8c73317&amp;dn=Ek.Villain.2014.DVDRip.x264.Hindi.Esubs-ViZNU+%5BP2PDL%5D&amp;tr=udp%3A%2F%2Ftracker.openbittorrent.com%3A80&amp;tr=udp%3A%2F%2Fopen.demonii.com%3A1337&amp;tr=udp%3A%2F%2Ftracker.coppersurfer.tk%3A6969&amp;tr=udp%3A%2F%2Fexodus.desync.com%3A6969","seeders":1,"leechers":1,"uploader":"ValidusVyto","files":-1,"time":1409465827,"description":"Ek.Villain.2014.DVDRip.x264.Hindi.Esubs-ViZNU\n\n\nGenre: Action | Romance | Thriller &lt;a href=&quot;\nhttp://www.imdb.com/title/tt3175038/&quot; rel=&quot;nofollow&quot; target=&quot;_NEW&quot;&gt;\nhttp://www.imdb.com/title/tt3175038/&lt;/a&gt;\n\n\nFormat                         : MPEG-4\nFile size                      : 535 MiB\nDuration                       : 2h 3mn\nOverall bit rate               : 605 Kbps\n\nVideo\nFormat                         : AVC\nBit rate                       : 560 Kbps\nWidth                          : 656 pixels\nHeight                         : 336 pixels\nDisplay aspect ratio           : 2.35:1\nFrame rate mode                : Constant\nFrame rate                     : 25.000 fps\nBit depth                      : 8 bits\nStream size                    : 496 MiB (93%)\nWriting library                : x264 core 142 r2389 956c8d8\n\nAudio\nFormat                         : AAC\nBit rate                       : 40.0 Kbps\nChannel(s)                     : 2 channels\nChannel positions              : Front: L R\nSampling rate                  : 48.0 KHz\nStream size                    : 35.4 MiB (7%)\nLanguage                       : Hindi\n\nSubtitle                       : Yes (English)\n &lt;a href=&quot;\nhttp://ultraimg.com/images/2f13cf.png&quot; rel=&quot;nofollow&quot; target=&quot;_NEW&quot;&gt;\nhttp://ultraimg.com/images/2f13cf.png&lt;/a&gt; &lt;a href=&quot;\nhttp://ultraimg.com/images/32dc99.png&quot; rel=&quot;nofollow&quot; target=&quot;_NEW&quot;&gt;\nhttp://ultraimg.com/images/32dc99.png&lt;/a&gt; &lt;a href=&quot;\nhttp://ultraimg.com/images/498c78.png&quot; rel=&quot;nofollow&quot; target=&quot;_NEW&quot;&gt;\nhttp://ultraimg.com/images/498c78.png&lt;/a&gt; &lt;a href=&quot;\nhttp://ultraimg.com/images/54f41a.png&quot; rel=&quot;nofollow&quot; target=&quot;_NEW&quot;&gt;\nhttp://ultraimg.com/images/54f41a.png&lt;/a&gt; &lt;a href=&quot;\nhttp://ultraimg.com/images/62bb15.png&quot; rel=&quot;nofollow&quot; target=&quot;_NEW&quot;&gt;\nhttp://ultraimg.com/images/62bb15.png&lt;/a&gt; &lt;a href=&quot;\nhttp://ultraimg.com/images/8b3822.png&quot; rel=&quot;nofollow&quot; target=&quot;_NEW&quot;&gt;\nhttp://ultraimg.com/images/8b3822.png&lt;/a&gt; &lt;a href=&quot;\nhttp://ultraimg.com/images/1489ea.png&quot; rel=&quot;nofollow&quot; target=&quot;_NEW&quot;&gt;\nhttp://ultraimg.com/images/1489ea.png&lt;/a&gt; &lt;a href=&quot;\nhttp://ultraimg.com/images/79bfd0.png&quot; rel=&quot;nofollow&quot; target=&quot;_NEW&quot;&gt;\nhttp://ultraimg.com/images/79bfd0.png&lt;/a&gt;\n\n----------------------------------------------------------------------------------------------------\n\n\nRecommend to you to use latest version of VLC player. Install K-Lite Codec Pack or shark007 codecs\nin case of any kind of problem in playback (For non-VLC Media Player users). Alternatively, install\nCore AVC codecs, the fastest decoder that there is coupled with Community Center Codec Pack and play\non Windows Media Player Classic. Check sample to be sure.\n\nEncoder Notes:Looking For Early Access To Anything You Can Provide DVDScr, R5, DVDR, BluRay, Direct\nAudio, Music Releases and Seedboxes. We require dedicated servers, so as to do more \nand fast releases of movies.\n\nFind us @ P2PDL\nSearch it!","torrent":{"xt":"urn:btih:090476f679ed9f14f654093a67c969b7a8c73317","amp;dn":"Ek.Villain.2014.DVDRip.x264.Hindi.Esubs-ViZNU+%5BP2PDL%5D","amp;tr":["udp%3A%2F%2Ftracker.openbittorrent.com%3A80","udp%3A%2F%2Fopen.demonii.com%3A1337","udp%3A%2F%2Ftracker.coppersurfer.tk%3A6969","udp%3A%2F%2Fexodus.desync.com%3A6969"],"infoHash":"090476f679ed9f14f654093a67c969b7a8c73317","infoHashBuffer":{"type":"Buffer","data":[9,4,118,246,121,237,159,20,246,84,9,58,103,201,105,183,168,199,51,23]},"announce":[],"urlList":[]}}